<?xml version="1.0" encoding="UTF-8"?>
<svg version="1.1" viewBox="0 0 626.38 465" xmlns="http://www.w3.org/2000/svg">
 <defs>
  <filter id="f" color-interpolation-filters="sRGB">
   <feGaussianBlur in="SourceGraphic" result="result6" stdDeviation="3"/>
   <feColorMatrix in="SourceGraphic" result="result7" values="1 0 0 0 0 0 1 0 0 0 0 0 1 0 0 0 0 0 1 0 "/>
   <feComposite in="result6" in2="result7" operator="in"/>
  </filter>
  <filter id="g" color-interpolation-filters="sRGB">
   <feGaussianBlur in="SourceGraphic" result="result6" stdDeviation="3"/>
   <feColorMatrix in="SourceGraphic" result="result7" values="1 0 0 0 0 0 1 0 0 0 0 0 1 0 0 0 0 0 1 0 "/>
   <feComposite in="result6" in2="result7" operator="in"/>
  </filter>
  <filter id="h" color-interpolation-filters="sRGB">
   <feGaussianBlur in="SourceGraphic" result="result6" stdDeviation="3"/>
   <feColorMatrix in="SourceGraphic" result="result7" values="1 0 0 0 0 0 1 0 0 0 0 0 1 0 0 0 0 0 1 0 "/>
   <feComposite in="result6" in2="result7" operator="in"/>
  </filter>
  <filter id="i" color-interpolation-filters="sRGB">
   <feGaussianBlur stdDeviation="0.95773741"/>
  </filter>
  <filter id="j" color-interpolation-filters="sRGB">
   <feGaussianBlur stdDeviation="0.95773741"/>
  </filter>
 </defs>
 <g transform="translate(74.142 -569.87)" stroke="#000">
  <g transform="translate(473.07 251.91)">
   <path d="m-204.54 524.17s-11.737-18.508-14.897-21.668-4.5142-7.2227-9.9312-15.8c-5.417-8.5769-21.217-38.37-44.239-45.142-23.022-6.7713-27.085-4.5142-33.856-1.3542s-8.5769 1.8057-15.348 1.3542c-6.7712-0.45142-10.834 1.8057-11.737 4.0628-0.90284 2.2571 0 7.2227-6.3198 8.1255-6.3198 0.90284-13.994-0.45141-15.348 1.8057-1.3542 2.2571 4.9656 9.4798 3.1599 12.188-1.8057 2.7085-4.9656 3.6113-7.2227 7.6741s-4.5142 5.417-8.5769 5.417c-4.0628 0-8.5769 3.1599-9.4798 5.8684-0.90283 2.7085 7.6741 9.4798 1.3542 15.8s-10.383 7.2227-26.182 12.188-33.405 14.897-38.37 14.897-12.188 5.8684-12.64 8.1255c-0.45142 2.2571 1.3542 4.5142 7.6741 4.5142s8.1255-4.0628 11.737-6.7713c3.6113-2.7085 4.5142-6.3198 7.2227-7.6741s17.605-6.3198 23.474-4.5142c5.8684 1.8057 12.64 9.0283 14.445 9.9312 1.8057 0.90283 0.45142 5.417 1.3543 8.5769 0.90283 3.1599 3.6113 1.8057 6.7712 4.9656s4.5142 9.4798 4.9656 17.154 1.3542 14.445 5.8684 14.445 9.9312-10.834 13.091-10.834 11.285 2.7085 11.285 9.0283 1.3542 10.834 6.3198 8.5769 23.474-14.897 30.696-18.508c7.2227-3.6113 25.279-6.7713 32.051-9.4798 6.7713-2.7085 14.445-5.417 27.085-10.383s18.057-6.3198 23.925-8.5769c5.8684-2.2571 12.64-5.417 16.702-7.6741 4.0628-2.2571 4.9656-6.3198 4.9656-6.3198z" fill="#192e2e" stroke-width="1px"/>
   <path d="m-210.86 513.79s-18.057-26.634-32.502-30.245c-14.445-3.6113-28.891-1.3542-39.725-8.5769s-13.543-9.9312-17.154-13.543c-3.6113-3.6113-4.2177-4.0275-5.8684-3.6113-3.0466 0.76811 1.8057 9.0283-2.7085 9.0283s-9.9312-10.834-17.154-5.8684c-4.4793 3.0795-5.8684 12.188-7.6741 13.994s4.5142 6.3198 0.45142 7.2227c-4.0628 0.90283-10.834 0.90283-15.8 1.8057-5.3665 0.97572 2.2571 7.6741 1.3542 11.737-0.90283 4.0628-1.3542 4.5142-1.3542 4.5142s13.994 3.1599 12.64 8.5769c-1.3542 5.417-18.982 4.8166-18.508 12.188 0.44075 6.8501 20.314 4.5142 18.508 9.0284-1.8057 4.5142-13.543 9.9312-13.543 14.445 0 4.5142 9.0284 9.4798 12.64 10.834 3.6113 1.3542 9.0283 2.7085 9.4798 9.0283 0.45141 6.3198 5.417 6.3198 5.417 6.3198l17.154-8.1255s30.714-8.9691 46.045-13.543c26.94-8.0367 47.725-16.757 52.816-22.571 3.1031-3.544-4.5142-12.64-4.5142-12.64z" fill="#00daff" filter="url(#f)" stroke-width="1px"/>
   <path d="m-546.71 442.92z" fill="none" stroke-width="1px"/>
   <path d="m-203.63 524.62s32.953-6.7713 38.822-56.879c5.8684-50.107 5.6682-80.759-14.445-111.95-23.349-36.21-31.543-27.993-35.662-24.973-18.014 13.21-14.328 29.659-18.96 38.515-1.6821 3.2164-3.14 4.3268-12.64 9.9312-7.0092 4.1351-8.5769 4.5142-14.897 6.7713-6.3198 2.2571-10.383 5.8684-14.445 10.383-4.0628 4.5142-9.9312 8.5769-7.6741 15.8 2.2571 7.2227 23.022 31.148 26.634 35.662s24.377 35.211 30.696 45.142 17.605 29.342 22.571 31.599z" fill="#192e2e" stroke-width="1px"/>
   <path d="m-200.47 520.11s39.015-31.799 34.759-87.124c-5.417-70.421-40.112-94.611-40.628-85.769s25.731 44.69 25.279 65.004-20.291-71.2-33.856-54.621c-4.192 5.1232 20.765 55.976 20.314 67.261-0.45141 11.285-18.685-58.493-30.696-56.427-15.746 2.7085 25.731 58.684 25.731 58.684s-35.211-53.267-45.593-45.593c-4.8433 3.5798 32.953 52.364 32.953 52.364s-33.405-43.336-46.045-43.336 35.662 51.01 35.662 51.01-41.079-46.496-47.85-41.982c-4.1316 2.7544 29.794 46.947 29.794 46.947s-23.474-30.696-33.856-31.148c-8.9859-0.39069 27.536 41.982 27.536 41.982s33.856 54.17 38.822 58.233c4.9656 4.0628 0 6.3198 7.6741 4.5142z" fill="#305757" filter="url(#h)" stroke-width="1px"/>
   <path d="m-197.77 521.46s15.339-9.392 22.571-24.377c9.5999-19.89 10.834-35.211 10.834-45.142s0.45142-23.022-3.6113-32.051c-3.2982-7.3293-2.2571-9.0283-8.1255-12.64-5.8684-3.6113-12.64-8.1255-12.64-8.1255s2.2571 8.1255 1.3542 14.897c-4.9656 0.45142-13.091-16.251-14.445-13.091-1.3543 3.1599 6.3198 18.057 3.6113 19.411-2.7085 1.3543-17.154-17.154-17.154-17.154l8.5769 24.828-22.571-20.314 10.834 27.988-24.377-17.154 16.702 27.085-28.439-16.702 13.994 24.828-17.154-10.834s46.947 71.324 49.656 74.484 6.7713 4.9656 10.383 4.0628z" fill="#00daff" filter="url(#g)" stroke-width="1px"/>
   <path d="m-264.58 586.47c0.45142-1.8057 4.9656-9.4798 7.6741-18.057 2.7085-8.5769 3.6113-11.737 12.188-18.508 8.5769-6.7713 18.508-4.5142 24.377-10.383 5.8684-5.8684 13.091-12.64 16.702-15.348 3.6113-2.7085 11.737-1.8057 17.154-6.3198s7.2227-4.5142 11.737-4.5142c4.5142 0 8.1255 1.3542 8.1255 4.9656s-3.6113 9.9312-9.0283 9.9312-5.417-1.3542-11.285 2.7085c-5.8684 4.0628-22.119 12.188-36.113 26.182s-24.377 25.279-28.891 27.536c-4.5142 2.2571-8.5769 3.6113-12.64 1.8057z" stroke-width="1px"/>
   <path d="m-176.98 513.32s39.018-43.481 41.805-51.897c2.787-8.4157 6.9152-13.526 6.9152-13.526s0.0162 4.498-1.7895 7.6579-4.9656 6.3198-4.9656 6.3198" stroke-width="1.032"/>
   <path d="m-175.63 511.52s25.025-43.932 27.812-52.348c2.787-8.4157 1.9496-12.624 1.9496-12.624s1.7455 5.153 0.46758 8.5607c-1.3542 3.6113-2.0566 2.508-2.0566 2.508" stroke-width="1.032"/>
   <g transform="translate(-427.5 -146.52)" fill="none" filter="url(#i)" stroke-width=".2">
    <path transform="translate(0 308.27)" d="m183.98 288.03c7.7346 7.5072 22.943 18.908 33.168 30.577 3.2874 3.7515 4.3371 8.6742 6.7373 13.475 1.4243 2.8486 1.5548 22.291 1.5548 27.468"/>
    <path transform="translate(0 308.27)" d="m225.44 360.07c0.95704-24.178-3.2912-55.09 7.2556-76.184 3.3117-6.6234-2.8899-23.023 2.073-27.986 6.4402-6.4402 20.107-4.7698 25.913 1.0365"/>
    <path transform="translate(0 308.27)" d="m197.97 279.74c7.7802 5.3645 26.386 19.604 29.022 24.876"/>
    <path transform="translate(0 308.27)" d="m206.78 270.41c10.005 3.7178 18.755 12.018 24.876 18.139"/>
    <path transform="translate(0 308.27)" d="m218.19 262.63c7.6077 1.6571 10.499 11.694 15.548 12.956"/>
    <path transform="translate(0 308.27)" d="m228.03 256.42c2.0454 0.74989 3.7587 2.204 4.6643 3.1095"/>
    <path transform="translate(0 308.27)" d="m239.43 249.16c0.34551 0.691 1.2093 2.9368 1.5548 3.6278"/>
   </g>
   <g transform="translate(-427.5 -146.52)" fill="none" filter="url(#j)" stroke-width=".2">
    <path transform="translate(0 308.27)" d="m219.74 361.62c-21.236 7.8999-101.6-10.324-90.177-33.168 6.2836-12.567 18.788-4.5987 36.278-2.073 4.0735 0.58826 13.746-0.64166 22.285 2.073 9.8696 3.1378 17.873 15.478 24.876 20.73"/>
    <path transform="translate(0 308.27)" d="m118.16 304.09c7.9868 5.164 15.784 15.218 23.322 17.102"/>
    <path transform="translate(0 308.27)" d="m95.877 319.12c5.149 3.54 22.198 11.92 33.168 11.92"/>
    <path transform="translate(0 308.27)" d="m88.622 348.15c16.299-0.92991 32.688-2.0917 44.052-7.7738"/>
    <path transform="translate(0 308.27)" d="m90.177 369.4c18.992-4.2529 47.922-5.5057 60.636-17.102"/>
    <path transform="translate(0 308.27)" d="m96.396 396.34c20.618-9.6765 78.986-21.978 91.213-34.205"/>
   </g>
  </g>
  <g transform="matrix(-.55464 -.19098 -.19098 .55464 270.89 636.89)">
   <path d="m-204.54 524.17s-11.737-18.508-14.897-21.668-4.5142-7.2227-9.9312-15.8c-5.417-8.5769-21.217-38.37-44.239-45.142-23.022-6.7713-27.085-4.5142-33.856-1.3542s-8.5769 1.8057-15.348 1.3542c-6.7712-0.45142-10.834 1.8057-11.737 4.0628-0.90284 2.2571 0 7.2227-6.3198 8.1255-6.3198 0.90284-13.994-0.45141-15.348 1.8057-1.3542 2.2571 4.9656 9.4798 3.1599 12.188-1.8057 2.7085-4.9656 3.6113-7.2227 7.6741s-4.5142 5.417-8.5769 5.417c-4.0628 0-8.5769 3.1599-9.4798 5.8684-0.90283 2.7085 7.6741 9.4798 1.3542 15.8s-10.383 7.2227-26.182 12.188-33.405 14.897-38.37 14.897-12.188 5.8684-12.64 8.1255c-0.45142 2.2571 1.3542 4.5142 7.6741 4.5142s8.1255-4.0628 11.737-6.7713c3.6113-2.7085 4.5142-6.3198 7.2227-7.6741s17.605-6.3198 23.474-4.5142c5.8684 1.8057 12.64 9.0283 14.445 9.9312 1.8057 0.90283 0.45142 5.417 1.3543 8.5769 0.90283 3.1599 3.6113 1.8057 6.7712 4.9656s4.5142 9.4798 4.9656 17.154 1.3542 14.445 5.8684 14.445 9.9312-10.834 13.091-10.834 11.285 2.7085 11.285 9.0283 1.3542 10.834 6.3198 8.5769 23.474-14.897 30.696-18.508c7.2227-3.6113 25.279-6.7713 32.051-9.4798 6.7713-2.7085 14.445-5.417 27.085-10.383s18.057-6.3198 23.925-8.5769c5.8684-2.2571 12.64-5.417 16.702-7.6741 4.0628-2.2571 4.9656-6.3198 4.9656-6.3198z" fill="#192e2e" stroke-width="1px"/>
   <path d="m-210.86 513.79s-18.057-26.634-32.502-30.245c-14.445-3.6113-28.891-1.3542-39.725-8.5769s-13.543-9.9312-17.154-13.543c-3.6113-3.6113-4.2177-4.0275-5.8684-3.6113-3.0466 0.76811 1.8057 9.0283-2.7085 9.0283s-9.9312-10.834-17.154-5.8684c-4.4793 3.0795-5.8684 12.188-7.6741 13.994s4.5142 6.3198 0.45142 7.2227c-4.0628 0.90283-10.834 0.90283-15.8 1.8057-5.3665 0.97572 2.2571 7.6741 1.3542 11.737-0.90283 4.0628-1.3542 4.5142-1.3542 4.5142s13.994 3.1599 12.64 8.5769c-1.3542 5.417-18.982 4.8166-18.508 12.188 0.44075 6.8501 20.314 4.5142 18.508 9.0284-1.8057 4.5142-13.543 9.9312-13.543 14.445 0 4.5142 9.0284 9.4798 12.64 10.834 3.6113 1.3542 9.0283 2.7085 9.4798 9.0283 0.45141 6.3198 5.417 6.3198 5.417 6.3198l17.154-8.1255s30.714-8.9691 46.045-13.543c26.94-8.0367 47.725-16.757 52.816-22.571 3.1031-3.544-4.5142-12.64-4.5142-12.64z" fill="#f1b111" filter="url(#f)" stroke-width="1px"/>
   <path d="m-546.71 442.92z" fill="none" stroke-width="1px"/>
   <path d="m-203.63 524.62s32.953-6.7713 38.822-56.879c5.8684-50.107 5.6682-80.759-14.445-111.95-23.349-36.21-31.543-27.993-35.662-24.973-18.014 13.21-14.328 29.659-18.96 38.515-1.6821 3.2164-3.14 4.3268-12.64 9.9312-7.0092 4.1351-8.5769 4.5142-14.897 6.7713-6.3198 2.2571-10.383 5.8684-14.445 10.383-4.0628 4.5142-9.9312 8.5769-7.6741 15.8 2.2571 7.2227 23.022 31.148 26.634 35.662s24.377 35.211 30.696 45.142 17.605 29.342 22.571 31.599z" fill="#192e2e" stroke-width="1px"/>
   <path d="m-200.47 520.11s39.015-31.799 34.759-87.124c-5.417-70.421-40.112-94.611-40.628-85.769s25.731 44.69 25.279 65.004-20.291-71.2-33.856-54.621c-4.192 5.1232 20.765 55.976 20.314 67.261-0.45141 11.285-18.685-58.493-30.696-56.427-15.746 2.7085 25.731 58.684 25.731 58.684s-35.211-53.267-45.593-45.593c-4.8433 3.5798 32.953 52.364 32.953 52.364s-33.405-43.336-46.045-43.336 35.662 51.01 35.662 51.01-41.079-46.496-47.85-41.982c-4.1316 2.7544 29.794 46.947 29.794 46.947s-23.474-30.696-33.856-31.148c-8.9859-0.39069 27.536 41.982 27.536 41.982s33.856 54.17 38.822 58.233c4.9656 4.0628 0 6.3198 7.6741 4.5142z" fill="#575729" filter="url(#h)" stroke-width="1px"/>
   <path d="m-197.77 521.46s15.339-9.392 22.571-24.377c9.5999-19.89 10.834-35.211 10.834-45.142s0.45142-23.022-3.6113-32.051c-3.2982-7.3293-2.2571-9.0283-8.1255-12.64-5.8684-3.6113-12.64-8.1255-12.64-8.1255s2.2571 8.1255 1.3542 14.897c-4.9656 0.45142-13.091-16.251-14.445-13.091-1.3543 3.1599 6.3198 18.057 3.6113 19.411-2.7085 1.3543-17.154-17.154-17.154-17.154l8.5769 24.828-22.571-20.314 10.834 27.988-24.377-17.154 16.702 27.085-28.439-16.702 13.994 24.828-17.154-10.834s46.947 71.324 49.656 74.484 6.7713 4.9656 10.383 4.0628z" fill="#f1b111" filter="url(#g)" stroke-width="1px"/>
   <path d="m-264.58 586.47c0.45142-1.8057 4.9656-9.4798 7.6741-18.057 2.7085-8.5769 3.6113-11.737 12.188-18.508 8.5769-6.7713 18.508-4.5142 24.377-10.383 5.8684-5.8684 13.091-12.64 16.702-15.348 3.6113-2.7085 11.737-1.8057 17.154-6.3198s7.2227-4.5142 11.737-4.5142c4.5142 0 8.1255 1.3542 8.1255 4.9656s-3.6113 9.9312-9.0283 9.9312-5.417-1.3542-11.285 2.7085c-5.8684 4.0628-22.119 12.188-36.113 26.182s-24.377 25.279-28.891 27.536c-4.5142 2.2571-8.5769 3.6113-12.64 1.8057z" stroke-width="1px"/>
   <path d="m-176.98 513.32s39.018-43.481 41.805-51.897c2.787-8.4157 6.9152-13.526 6.9152-13.526s0.0162 4.498-1.7895 7.6579-4.9656 6.3198-4.9656 6.3198" stroke-width="1.032"/>
   <path d="m-175.63 511.52s25.025-43.932 27.812-52.348c2.787-8.4157 1.9496-12.624 1.9496-12.624s1.7455 5.153 0.46758 8.5607c-1.3542 3.6113-2.0566 2.508-2.0566 2.508" stroke-width="1.032"/>
   <g transform="translate(-427.5 -146.52)" fill="none" filter="url(#i)" stroke-width=".2">
    <path transform="translate(0 308.27)" d="m183.98 288.03c7.7346 7.5072 22.943 18.908 33.168 30.577 3.2874 3.7515 4.3371 8.6742 6.7373 13.475 1.4243 2.8486 1.5548 22.291 1.5548 27.468"/>
    <path transform="translate(0 308.27)" d="m225.44 360.07c0.95704-24.178-3.2912-55.09 7.2556-76.184 3.3117-6.6234-2.8899-23.023 2.073-27.986 6.4402-6.4402 20.107-4.7698 25.913 1.0365"/>
    <path transform="translate(0 308.27)" d="m197.97 279.74c7.7802 5.3645 26.386 19.604 29.022 24.876"/>
    <path transform="translate(0 308.27)" d="m206.78 270.41c10.005 3.7178 18.755 12.018 24.876 18.139"/>
    <path transform="translate(0 308.27)" d="m218.19 262.63c7.6077 1.6571 10.499 11.694 15.548 12.956"/>
    <path transform="translate(0 308.27)" d="m228.03 256.42c2.0454 0.74989 3.7587 2.204 4.6643 3.1095"/>
    <path transform="translate(0 308.27)" d="m239.43 249.16c0.34551 0.691 1.2093 2.9368 1.5548 3.6278"/>
   </g>
   <g transform="translate(-427.5 -146.52)" fill="none" filter="url(#j)" stroke-width=".2">
    <path transform="translate(0 308.27)" d="m219.74 361.62c-21.236 7.8999-101.6-10.324-90.177-33.168 6.2836-12.567 18.788-4.5987 36.278-2.073 4.0735 0.58826 13.746-0.64166 22.285 2.073 9.8696 3.1378 17.873 15.478 24.876 20.73"/>
    <path transform="translate(0 308.27)" d="m118.16 304.09c7.9868 5.164 15.784 15.218 23.322 17.102"/>
    <path transform="translate(0 308.27)" d="m95.877 319.12c5.149 3.54 22.198 11.92 33.168 11.92"/>
    <path transform="translate(0 308.27)" d="m88.622 348.15c16.299-0.92991 32.688-2.0917 44.052-7.7738"/>
    <path transform="translate(0 308.27)" d="m90.177 369.4c18.992-4.2529 47.922-5.5057 60.636-17.102"/>
    <path transform="translate(0 308.27)" d="m96.396 396.34c20.618-9.6765 78.986-21.978 91.213-34.205"/>
   </g>
  </g>
  <g transform="matrix(-.37462 -.12899 -.12899 .37462 404.36 617.39)">
   <path d="m-204.54 524.17s-11.737-18.508-14.897-21.668-4.5142-7.2227-9.9312-15.8c-5.417-8.5769-21.217-38.37-44.239-45.142-23.022-6.7713-27.085-4.5142-33.856-1.3542s-8.5769 1.8057-15.348 1.3542c-6.7712-0.45142-10.834 1.8057-11.737 4.0628-0.90284 2.2571 0 7.2227-6.3198 8.1255-6.3198 0.90284-13.994-0.45141-15.348 1.8057-1.3542 2.2571 4.9656 9.4798 3.1599 12.188-1.8057 2.7085-4.9656 3.6113-7.2227 7.6741s-4.5142 5.417-8.5769 5.417c-4.0628 0-8.5769 3.1599-9.4798 5.8684-0.90283 2.7085 7.6741 9.4798 1.3542 15.8s-10.383 7.2227-26.182 12.188-33.405 14.897-38.37 14.897-12.188 5.8684-12.64 8.1255c-0.45142 2.2571 1.3542 4.5142 7.6741 4.5142s8.1255-4.0628 11.737-6.7713c3.6113-2.7085 4.5142-6.3198 7.2227-7.6741s17.605-6.3198 23.474-4.5142c5.8684 1.8057 12.64 9.0283 14.445 9.9312 1.8057 0.90283 0.45142 5.417 1.3543 8.5769 0.90283 3.1599 3.6113 1.8057 6.7712 4.9656s4.5142 9.4798 4.9656 17.154 1.3542 14.445 5.8684 14.445 9.9312-10.834 13.091-10.834 11.285 2.7085 11.285 9.0283 1.3542 10.834 6.3198 8.5769 23.474-14.897 30.696-18.508c7.2227-3.6113 25.279-6.7713 32.051-9.4798 6.7713-2.7085 14.445-5.417 27.085-10.383s18.057-6.3198 23.925-8.5769c5.8684-2.2571 12.64-5.417 16.702-7.6741 4.0628-2.2571 4.9656-6.3198 4.9656-6.3198z" fill="#192e2e" stroke-width="1px"/>
   <path d="m-210.86 513.79s-18.057-26.634-32.502-30.245c-14.445-3.6113-28.891-1.3542-39.725-8.5769s-13.543-9.9312-17.154-13.543c-3.6113-3.6113-4.2177-4.0275-5.8684-3.6113-3.0466 0.76811 1.8057 9.0283-2.7085 9.0283s-9.9312-10.834-17.154-5.8684c-4.4793 3.0795-5.8684 12.188-7.6741 13.994s4.5142 6.3198 0.45142 7.2227c-4.0628 0.90283-10.834 0.90283-15.8 1.8057-5.3665 0.97572 2.2571 7.6741 1.3542 11.737-0.90283 4.0628-1.3542 4.5142-1.3542 4.5142s13.994 3.1599 12.64 8.5769c-1.3542 5.417-18.982 4.8166-18.508 12.188 0.44075 6.8501 20.314 4.5142 18.508 9.0284-1.8057 4.5142-13.543 9.9312-13.543 14.445 0 4.5142 9.0284 9.4798 12.64 10.834 3.6113 1.3542 9.0283 2.7085 9.4798 9.0283 0.45141 6.3198 5.417 6.3198 5.417 6.3198l17.154-8.1255s30.714-8.9691 46.045-13.543c26.94-8.0367 47.725-16.757 52.816-22.571 3.1031-3.544-4.5142-12.64-4.5142-12.64z" fill="#f17ae4" filter="url(#f)" stroke-width="1px"/>
   <path d="m-546.71 442.92z" fill="none" stroke-width="1px"/>
   <path d="m-203.63 524.62s32.953-6.7713 38.822-56.879c5.8684-50.107 5.6682-80.759-14.445-111.95-23.349-36.21-31.543-27.993-35.662-24.973-18.014 13.21-14.328 29.659-18.96 38.515-1.6821 3.2164-3.14 4.3268-12.64 9.9312-7.0092 4.1351-8.5769 4.5142-14.897 6.7713-6.3198 2.2571-10.383 5.8684-14.445 10.383-4.0628 4.5142-9.9312 8.5769-7.6741 15.8 2.2571 7.2227 23.022 31.148 26.634 35.662s24.377 35.211 30.696 45.142 17.605 29.342 22.571 31.599z" fill="#192e2e" stroke-width="1px"/>
   <path d="m-200.47 520.11s39.015-31.799 34.759-87.124c-5.417-70.421-40.112-94.611-40.628-85.769s25.731 44.69 25.279 65.004-20.291-71.2-33.856-54.621c-4.192 5.1232 20.765 55.976 20.314 67.261-0.45141 11.285-18.685-58.493-30.696-56.427-15.746 2.7085 25.731 58.684 25.731 58.684s-35.211-53.267-45.593-45.593c-4.8433 3.5798 32.953 52.364 32.953 52.364s-33.405-43.336-46.045-43.336 35.662 51.01 35.662 51.01-41.079-46.496-47.85-41.982c-4.1316 2.7544 29.794 46.947 29.794 46.947s-23.474-30.696-33.856-31.148c-8.9859-0.39069 27.536 41.982 27.536 41.982s33.856 54.17 38.822 58.233c4.9656 4.0628 0 6.3198 7.6741 4.5142z" fill="#5d2f58" filter="url(#h)" stroke-width="1px"/>
   <path d="m-197.77 521.46s15.339-9.392 22.571-24.377c9.5999-19.89 10.834-35.211 10.834-45.142s0.45142-23.022-3.6113-32.051c-3.2982-7.3293-2.2571-9.0283-8.1255-12.64-5.8684-3.6113-12.64-8.1255-12.64-8.1255s2.2571 8.1255 1.3542 14.897c-4.9656 0.45142-13.091-16.251-14.445-13.091-1.3543 3.1599 6.3198 18.057 3.6113 19.411-2.7085 1.3543-17.154-17.154-17.154-17.154l8.5769 24.828-22.571-20.314 10.834 27.988-24.377-17.154 16.702 27.085-28.439-16.702 13.994 24.828-17.154-10.834s46.947 71.324 49.656 74.484 6.7713 4.9656 10.383 4.0628z" fill="#f17ae4" filter="url(#g)" stroke-width="1px"/>
   <path d="m-264.58 586.47c0.45142-1.8057 4.9656-9.4798 7.6741-18.057 2.7085-8.5769 3.6113-11.737 12.188-18.508 8.5769-6.7713 18.508-4.5142 24.377-10.383 5.8684-5.8684 13.091-12.64 16.702-15.348 3.6113-2.7085 11.737-1.8057 17.154-6.3198s7.2227-4.5142 11.737-4.5142c4.5142 0 8.1255 1.3542 8.1255 4.9656s-3.6113 9.9312-9.0283 9.9312-5.417-1.3542-11.285 2.7085c-5.8684 4.0628-22.119 12.188-36.113 26.182s-24.377 25.279-28.891 27.536c-4.5142 2.2571-8.5769 3.6113-12.64 1.8057z" stroke-width="1px"/>
   <path d="m-176.98 513.32s39.018-43.481 41.805-51.897c2.787-8.4157 6.9152-13.526 6.9152-13.526s0.0162 4.498-1.7895 7.6579-4.9656 6.3198-4.9656 6.3198" stroke-width="1.032"/>
   <path d="m-175.63 511.52s25.025-43.932 27.812-52.348c2.787-8.4157 1.9496-12.624 1.9496-12.624s1.7455 5.153 0.46758 8.5607c-1.3542 3.6113-2.0566 2.508-2.0566 2.508" stroke-width="1.032"/>
   <g transform="translate(-427.5 -146.52)" fill="none" filter="url(#i)" stroke-width=".2">
    <path transform="translate(0 308.27)" d="m183.98 288.03c7.7346 7.5072 22.943 18.908 33.168 30.577 3.2874 3.7515 4.3371 8.6742 6.7373 13.475 1.4243 2.8486 1.5548 22.291 1.5548 27.468"/>
    <path transform="translate(0 308.27)" d="m225.44 360.07c0.95704-24.178-3.2912-55.09 7.2556-76.184 3.3117-6.6234-2.8899-23.023 2.073-27.986 6.4402-6.4402 20.107-4.7698 25.913 1.0365"/>
    <path transform="translate(0 308.27)" d="m197.97 279.74c7.7802 5.3645 26.386 19.604 29.022 24.876"/>
    <path transform="translate(0 308.27)" d="m206.78 270.41c10.005 3.7178 18.755 12.018 24.876 18.139"/>
    <path transform="translate(0 308.27)" d="m218.19 262.63c7.6077 1.6571 10.499 11.694 15.548 12.956"/>
    <path transform="translate(0 308.27)" d="m228.03 256.42c2.0454 0.74989 3.7587 2.204 4.6643 3.1095"/>
    <path transform="translate(0 308.27)" d="m239.43 249.16c0.34551 0.691 1.2093 2.9368 1.5548 3.6278"/>
   </g>
   <g transform="translate(-427.5 -146.52)" fill="none" filter="url(#j)" stroke-width=".2">
    <path transform="translate(0 308.27)" d="m219.74 361.62c-21.236 7.8999-101.6-10.324-90.177-33.168 6.2836-12.567 18.788-4.5987 36.278-2.073 4.0735 0.58826 13.746-0.64166 22.285 2.073 9.8696 3.1378 17.873 15.478 24.876 20.73"/>
    <path transform="translate(0 308.27)" d="m118.16 304.09c7.9868 5.164 15.784 15.218 23.322 17.102"/>
    <path transform="translate(0 308.27)" d="m95.877 319.12c5.149 3.54 22.198 11.92 33.168 11.92"/>
    <path transform="translate(0 308.27)" d="m88.622 348.15c16.299-0.92991 32.688-2.0917 44.052-7.7738"/>
    <path transform="translate(0 308.27)" d="m90.177 369.4c18.992-4.2529 47.922-5.5057 60.636-17.102"/>
    <path transform="translate(0 308.27)" d="m96.396 396.34c20.618-9.6765 78.986-21.978 91.213-34.205"/>
   </g>
  </g>
 </g>
</svg>
